{"glyphs":{"0":{"ha":694,"x_min":69,"x_max":625,"o":"m 486 694 l 208 694 l 208 833 l 486 833 l 486 694 m 347 278 l 208 278 l 208 139 l 69 139 l 69 694 l 208 694 l 208 417 l 347 417 l 347 278 m 486 694 l 625 694 l 625 139 l 486 139 l 486 417 l 347 417 l 347 556 l 486 556 l 486 694 m 208 139 l 486 139 l 486 0 l 208 0 l 208 139 z "},"1":{"ha":556,"x_min":69,"x_max":486,"o":"m 347 139 l 486 139 l 486 0 l 69 0 l 69 139 l 208 139 l 208 694 l 69 694 l 69 833 l 347 833 l 347 139 z "},"2":{"ha":694,"x_min":69,"x_max":625,"o":"m 486 833 l 486 694 l 208 694 l 208 833 l 486 833 m 69 556 l 69 694 l 208 694 l 208 556 l 69 556 m 486 694 l 625 694 l 625 417 l 486 417 l 486 694 m 208 417 l 486 417 l 486 278 l 208 278 l 208 417 m 69 278 l 208 278 l 208 139 l 625 139 l 625 0 l 69 0 l 69 278 z "},"3":{"ha":694,"x_min":69,"x_max":625,"o":"m 625 833 l 625 556 l 486 556 l 486 694 l 69 694 l 69 833 l 625 833 m 208 556 l 486 556 l 486 417 l 208 417 l 208 556 m 486 139 l 486 417 l 625 417 l 625 139 l 486 139 m 69 278 l 208 278 l 208 139 l 69 139 l 69 278 m 208 139 l 486 139 l 486 0 l 208 0 l 208 139 z "},"4":{"ha":833,"x_min":69,"x_max":764,"o":"m 625 278 l 764 278 l 764 139 l 625 139 l 625 0 l 486 0 l 486 139 l 69 139 l 69 417 l 208 417 l 208 278 l 486 278 l 486 556 l 347 556 l 347 694 l 486 694 l 486 833 l 625 833 l 625 278 m 347 556 l 347 417 l 208 417 l 208 556 l 347 556 z "},"5":{"ha":694,"x_min":69,"x_max":625,"o":"m 208 694 l 208 556 l 486 556 l 486 417 l 69 417 l 69 833 l 625 833 l 625 694 l 208 694 m 486 139 l 486 417 l 625 417 l 625 139 l 486 139 m 69 278 l 208 278 l 208 139 l 69 139 l 69 278 m 208 139 l 486 139 l 486 0 l 208 0 l 208 139 z "},"6":{"ha":694,"x_min":69,"x_max":625,"o":"m 208 694 l 208 833 l 625 833 l 625 694 l 208 694 m 69 694 l 208 694 l 208 556 l 486 556 l 486 417 l 208 417 l 208 139 l 69 139 l 69 694 m 486 139 l 486 417 l 625 417 l 625 139 l 486 139 m 208 139 l 486 139 l 486 0 l 208 0 l 208 139 z "},"7":{"ha":694,"x_min":69,"x_max":625,"o":"m 625 833 l 625 556 l 486 556 l 486 694 l 69 694 l 69 833 l 625 833 m 347 417 l 347 556 l 486 556 l 486 417 l 347 417 m 208 417 l 347 417 l 347 0 l 208 0 l 208 417 z "},"8":{"ha":694,"x_min":69,"x_max":625,"o":"m 486 694 l 208 694 l 208 833 l 486 833 l 486 694 m 69 694 l 208 694 l 208 556 l 69 556 l 69 694 m 625 556 l 486 556 l 486 694 l 625 694 l 625 556 m 486 556 l 486 417 l 208 417 l 208 556 l 486 556 m 208 417 l 208 139 l 69 139 l 69 417 l 208 417 m 486 139 l 486 417 l 625 417 l 625 139 l 486 139 m 208 139 l 486 139 l 486 0 l 208 0 l 208 139 z "},"9":{"ha":694,"x_min":69,"x_max":625,"o":"m 486 694 l 208 694 l 208 833 l 486 833 l 486 694 m 208 694 l 208 417 l 69 417 l 69 694 l 208 694 m 486 694 l 625 694 l 625 139 l 486 139 l 486 278 l 208 278 l 208 417 l 486 417 l 486 694 m 208 139 l 486 139 l 486 0 l 208 0 l 208 139 z "},"\r":{"ha":972,"x_min":0,"x_max":0,"o":""}," ":{"ha":417,"x_min":0,"x_max":0,"o":""},"A":{"ha":833,"x_min":69,"x_max":764,"o":"m 486 833 l 486 694 l 347 694 l 347 833 l 486 833 m 347 417 l 208 417 l 208 694 l 347 694 l 347 417 m 486 417 l 486 694 l 625 694 l 625 417 l 486 417 m 625 417 l 764 417 l 764 0 l 625 0 l 625 139 l 208 139 l 208 0 l 69 0 l 69 417 l 208 417 l 208 278 l 625 278 l 625 417 z "},"B":{"ha":833,"x_min":69,"x_max":764,"o":"m 625 556 l 625 417 l 208 417 l 208 139 l 625 139 l 625 0 l 69 0 l 69 833 l 625 833 l 625 694 l 208 694 l 208 556 l 625 556 m 764 556 l 625 556 l 625 694 l 764 694 l 764 556 m 625 139 l 625 417 l 764 417 l 764 139 l 625 139 z "},"C":{"ha":694,"x_min":69,"x_max":625,"o":"m 208 694 l 208 833 l 625 833 l 625 694 l 208 694 m 208 139 l 69 139 l 69 694 l 208 694 l 208 139 m 208 0 l 208 139 l 625 139 l 625 0 l 208 0 z "},"D":{"ha":833,"x_min":69,"x_max":764,"o":"m 625 139 l 625 0 l 69 0 l 69 833 l 625 833 l 625 694 l 208 694 l 208 139 l 625 139 m 625 694 l 764 694 l 764 139 l 625 139 l 625 694 z "},"E":{"ha":694,"x_min":69,"x_max":625,"o":"m 208 694 l 208 556 l 625 556 l 625 417 l 208 417 l 208 139 l 625 139 l 625 0 l 69 0 l 69 833 l 625 833 l 625 694 l 208 694 z "},"F":{"ha":694,"x_min":69,"x_max":625,"o":"m 208 694 l 208 417 l 625 417 l 625 278 l 208 278 l 208 0 l 69 0 l 69 833 l 625 833 l 625 694 l 208 694 z "},"G":{"ha":833,"x_min":69,"x_max":764,"o":"m 208 694 l 208 833 l 625 833 l 625 694 l 208 694 m 208 139 l 69 139 l 69 694 l 208 694 l 208 139 m 625 417 l 764 417 l 764 139 l 625 139 l 625 417 m 625 139 l 625 0 l 208 0 l 208 139 l 625 139 z "},"H":{"ha":833,"x_min":69,"x_max":764,"o":"m 625 833 l 764 833 l 764 0 l 625 0 l 625 417 l 208 417 l 208 0 l 69 0 l 69 833 l 208 833 l 208 556 l 625 556 l 625 833 z "},"I":{"ha":278,"x_min":69,"x_max":208,"o":"m 69 833 l 208 833 l 208 0 l 69 0 l 69 833 z "},"J":{"ha":694,"x_min":69,"x_max":625,"o":"m 486 833 l 625 833 l 625 139 l 486 139 l 486 833 m 69 278 l 208 278 l 208 139 l 69 139 l 69 278 m 208 139 l 486 139 l 486 0 l 208 0 l 208 139 z "},"K":{"ha":833,"x_min":69,"x_max":764,"o":"m 486 556 l 486 417 l 208 417 l 208 0 l 69 0 l 69 833 l 208 833 l 208 556 l 486 556 m 764 833 l 764 694 l 625 694 l 625 833 l 764 833 m 625 694 l 625 556 l 486 556 l 486 694 l 625 694 m 625 278 l 486 278 l 486 417 l 625 417 l 625 278 m 625 0 l 625 278 l 764 278 l 764 0 l 625 0 z "},"L":{"ha":694,"x_min":69,"x_max":625,"o":"m 625 139 l 625 0 l 69 0 l 69 833 l 208 833 l 208 139 l 625 139 z "},"M":{"ha":1111,"x_min":69,"x_max":1042,"o":"m 208 833 l 347 833 l 347 694 l 208 694 l 208 833 m 764 833 l 903 833 l 903 694 l 764 694 l 764 833 m 69 694 l 208 694 l 208 0 l 69 0 l 69 694 m 486 278 l 347 278 l 347 694 l 486 694 l 486 278 m 625 694 l 764 694 l 764 278 l 625 278 l 625 694 m 903 694 l 1042 694 l 1042 0 l 903 0 l 903 694 m 486 278 l 625 278 l 625 0 l 486 0 l 486 278 z "},"N":{"ha":833,"x_min":69,"x_max":764,"o":"m 208 694 l 347 694 l 347 556 l 208 556 l 208 0 l 69 0 l 69 833 l 208 833 l 208 694 m 625 833 l 764 833 l 764 0 l 625 0 l 625 139 l 486 139 l 486 278 l 625 278 l 625 833 m 486 556 l 486 278 l 347 278 l 347 556 l 486 556 z "},"O":{"ha":833,"x_min":69,"x_max":764,"o":"m 208 694 l 208 833 l 625 833 l 625 694 l 208 694 m 208 139 l 69 139 l 69 694 l 208 694 l 208 139 m 625 694 l 764 694 l 764 139 l 625 139 l 625 694 m 625 139 l 625 0 l 208 0 l 208 139 l 625 139 z "},"P":{"ha":833,"x_min":69,"x_max":764,"o":"m 625 417 l 625 278 l 208 278 l 208 0 l 69 0 l 69 833 l 625 833 l 625 694 l 208 694 l 208 417 l 625 417 m 625 694 l 764 694 l 764 417 l 625 417 l 625 694 z "},"Q":{"ha":833,"x_min":69,"x_max":764,"o":"m 208 694 l 208 833 l 625 833 l 625 694 l 208 694 m 208 139 l 69 139 l 69 694 l 208 694 l 208 139 m 625 694 l 764 694 l 764 139 l 625 139 l 625 694 m 486 278 l 486 139 l 625 139 l 625 0 l 486 0 l 486 -139 l 347 -139 l 347 0 l 208 0 l 208 139 l 347 139 l 347 278 l 486 278 z "},"R":{"ha":833,"x_min":69,"x_max":764,"o":"m 625 417 l 625 278 l 208 278 l 208 0 l 69 0 l 69 833 l 625 833 l 625 694 l 208 694 l 208 417 l 625 417 m 625 694 l 764 694 l 764 417 l 625 417 l 625 694 m 625 0 l 625 278 l 764 278 l 764 0 l 625 0 z "},"S":{"ha":833,"x_min":69,"x_max":764,"o":"m 208 694 l 208 833 l 764 833 l 764 694 l 208 694 m 69 694 l 208 694 l 208 556 l 69 556 l 69 694 m 208 417 l 208 556 l 625 556 l 625 417 l 208 417 m 625 139 l 625 417 l 764 417 l 764 139 l 625 139 m 625 139 l 625 0 l 208 0 l 208 139 l 625 139 z "},"T":{"ha":833,"x_min":69,"x_max":764,"o":"m 764 833 l 764 694 l 486 694 l 486 0 l 347 0 l 347 694 l 69 694 l 69 833 l 764 833 z "},"U":{"ha":833,"x_min":69,"x_max":764,"o":"m 208 139 l 69 139 l 69 833 l 208 833 l 208 139 m 625 833 l 764 833 l 764 139 l 625 139 l 625 833 m 625 139 l 625 0 l 208 0 l 208 139 l 625 139 z "},"V":{"ha":833,"x_min":69,"x_max":764,"o":"m 208 833 l 208 556 l 69 556 l 69 833 l 208 833 m 625 833 l 764 833 l 764 556 l 625 556 l 625 833 m 347 139 l 208 139 l 208 556 l 347 556 l 347 139 m 486 556 l 625 556 l 625 139 l 486 139 l 486 556 m 347 0 l 347 139 l 486 139 l 486 0 l 347 0 z "},"W":{"ha":1389,"x_min":69,"x_max":1319,"o":"m 208 833 l 208 556 l 69 556 l 69 833 l 208 833 m 764 833 l 764 556 l 625 556 l 625 833 l 764 833 m 1181 833 l 1319 833 l 1319 556 l 1181 556 l 1181 833 m 347 139 l 208 139 l 208 556 l 347 556 l 347 139 m 486 556 l 625 556 l 625 139 l 486 139 l 486 556 m 903 139 l 764 139 l 764 556 l 903 556 l 903 139 m 1042 556 l 1181 556 l 1181 139 l 1042 139 l 1042 556 m 347 0 l 347 139 l 486 139 l 486 0 l 347 0 m 903 0 l 903 139 l 1042 139 l 1042 0 l 903 0 z "},"X":{"ha":833,"x_min":69,"x_max":764,"o":"m 69 833 l 208 833 l 208 694 l 69 694 l 69 833 m 764 833 l 764 694 l 625 694 l 625 833 l 764 833 m 208 694 l 347 694 l 347 556 l 208 556 l 208 694 m 625 694 l 625 556 l 486 556 l 486 694 l 625 694 m 347 556 l 486 556 l 486 417 l 347 417 l 347 556 m 208 278 l 208 417 l 347 417 l 347 278 l 208 278 m 625 278 l 486 278 l 486 417 l 625 417 l 625 278 m 69 278 l 208 278 l 208 0 l 69 0 l 69 278 m 625 0 l 625 278 l 764 278 l 764 0 l 625 0 z "},"Y":{"ha":833,"x_min":69,"x_max":764,"o":"m 208 833 l 208 556 l 69 556 l 69 833 l 208 833 m 625 833 l 764 833 l 764 556 l 625 556 l 625 833 m 208 556 l 347 556 l 347 417 l 208 417 l 208 556 m 486 417 l 486 556 l 625 556 l 625 417 l 486 417 m 347 417 l 486 417 l 486 0 l 347 0 l 347 417 z "},"Z":{"ha":833,"x_min":69,"x_max":764,"o":"m 764 833 l 764 556 l 625 556 l 625 694 l 69 694 l 69 833 l 764 833 m 347 556 l 625 556 l 625 417 l 347 417 l 347 556 m 208 278 l 208 417 l 347 417 l 347 278 l 208 278 m 69 278 l 208 278 l 208 139 l 764 139 l 764 0 l 69 0 l 69 278 z "},"a":{"ha":694,"x_min":69,"x_max":625,"o":"m 486 694 l 486 556 l 208 556 l 208 694 l 486 694 m 486 556 l 625 556 l 625 139 l 486 139 l 486 278 l 208 278 l 208 417 l 486 417 l 486 556 m 69 278 l 208 278 l 208 139 l 69 139 l 69 278 m 208 139 l 486 139 l 486 0 l 208 0 l 208 139 z "},"b":{"ha":694,"x_min":69,"x_max":625,"o":"m 208 139 l 69 139 l 69 972 l 208 972 l 208 694 l 486 694 l 486 556 l 208 556 l 208 139 m 486 556 l 625 556 l 625 139 l 486 139 l 486 556 m 208 139 l 486 139 l 486 0 l 208 0 l 208 139 z "},"c":{"ha":556,"x_min":69,"x_max":486,"o":"m 486 556 l 208 556 l 208 694 l 486 694 l 486 556 m 208 139 l 69 139 l 69 556 l 208 556 l 208 139 m 208 0 l 208 139 l 486 139 l 486 0 l 208 0 z "},"d":{"ha":694,"x_min":69,"x_max":625,"o":"m 486 972 l 625 972 l 625 139 l 486 139 l 486 556 l 208 556 l 208 694 l 486 694 l 486 972 m 208 139 l 69 139 l 69 556 l 208 556 l 208 139 m 208 139 l 486 139 l 486 0 l 208 0 l 208 139 z "},"e":{"ha":694,"x_min":69,"x_max":625,"o":"m 486 556 l 208 556 l 208 694 l 486 694 l 486 556 m 208 417 l 486 417 l 486 278 l 208 278 l 208 139 l 69 139 l 69 556 l 208 556 l 208 417 m 486 556 l 625 556 l 625 417 l 486 417 l 486 556 m 208 0 l 208 139 l 486 139 l 486 0 l 208 0 z "},"f":{"ha":556,"x_min":69,"x_max":486,"o":"m 486 833 l 208 833 l 208 972 l 486 972 l 486 833 m 208 833 l 208 556 l 486 556 l 486 417 l 208 417 l 208 0 l 69 0 l 69 833 l 208 833 z "},"g":{"ha":833,"x_min":69,"x_max":764,"o":"m 486 556 l 208 556 l 208 694 l 764 694 l 764 556 l 625 556 l 625 417 l 486 417 l 486 556 m 69 556 l 208 556 l 208 417 l 69 417 l 69 556 m 486 278 l 347 278 l 347 139 l 625 139 l 625 0 l 208 0 l 208 417 l 486 417 l 486 278 m 69 0 l 208 0 l 208 -139 l 69 -139 l 69 0 m 764 -139 l 625 -139 l 625 0 l 764 0 l 764 -139 m 625 -139 l 625 -278 l 208 -278 l 208 -139 l 625 -139 z "},"h":{"ha":694,"x_min":69,"x_max":625,"o":"m 486 694 l 486 556 l 208 556 l 208 0 l 69 0 l 69 972 l 208 972 l 208 694 l 486 694 m 486 556 l 625 556 l 625 0 l 486 0 l 486 556 z "},"i":{"ha":278,"x_min":69,"x_max":208,"o":"m 69 972 l 208 972 l 208 833 l 69 833 l 69 972 m 69 694 l 208 694 l 208 0 l 69 0 l 69 694 z "},"j":{"ha":278,"x_min":-69,"x_max":208,"o":"m 69 972 l 208 972 l 208 833 l 69 833 l 69 972 m 69 694 l 208 694 l 208 -139 l 69 -139 l 69 694 m -69 -278 l -69 -139 l 69 -139 l 69 -278 l -69 -278 z "},"k":{"ha":694,"x_min":69,"x_max":625,"o":"m 208 417 l 486 417 l 486 278 l 208 278 l 208 0 l 69 0 l 69 972 l 208 972 l 208 417 m 486 694 l 625 694 l 625 417 l 486 417 l 486 694 m 486 0 l 486 278 l 625 278 l 625 0 l 486 0 z "},"l":{"ha":278,"x_min":69,"x_max":208,"o":"m 69 972 l 208 972 l 208 0 l 69 0 l 69 972 z "},"m":{"ha":1111,"x_min":69,"x_max":1042,"o":"m 486 694 l 486 556 l 208 556 l 208 0 l 69 0 l 69 694 l 486 694 m 903 694 l 903 556 l 625 556 l 625 694 l 903 694 m 486 556 l 625 556 l 625 0 l 486 0 l 486 556 m 903 556 l 1042 556 l 1042 0 l 903 0 l 903 556 z "},"n":{"ha":694,"x_min":69,"x_max":625,"o":"m 486 694 l 486 556 l 208 556 l 208 0 l 69 0 l 69 694 l 486 694 m 486 556 l 625 556 l 625 0 l 486 0 l 486 556 z "},"o":{"ha":694,"x_min":69,"x_max":625,"o":"m 486 556 l 208 556 l 208 694 l 486 694 l 486 556 m 208 139 l 69 139 l 69 556 l 208 556 l 208 139 m 486 556 l 625 556 l 625 139 l 486 139 l 486 556 m 208 139 l 486 139 l 486 0 l 208 0 l 208 139 z "},"p":{"ha":694,"x_min":69,"x_max":625,"o":"m 486 556 l 208 556 l 208 694 l 486 694 l 486 556 m 208 139 l 486 139 l 486 0 l 208 0 l 208 -278 l 69 -278 l 69 556 l 208 556 l 208 139 m 486 556 l 625 556 l 625 139 l 486 139 l 486 556 z "},"q":{"ha":694,"x_min":69,"x_max":625,"o":"m 486 556 l 208 556 l 208 694 l 486 694 l 486 556 m 208 139 l 69 139 l 69 556 l 208 556 l 208 139 m 486 556 l 625 556 l 625 -278 l 486 -278 l 486 0 l 208 0 l 208 139 l 486 139 l 486 556 z "},"r":{"ha":556,"x_min":69,"x_max":486,"o":"m 486 694 l 486 556 l 208 556 l 208 0 l 69 0 l 69 694 l 486 694 z "},"s":{"ha":694,"x_min":69,"x_max":625,"o":"m 208 556 l 208 694 l 625 694 l 625 556 l 208 556 m 69 556 l 208 556 l 208 417 l 69 417 l 69 556 m 208 278 l 208 417 l 486 417 l 486 278 l 208 278 m 625 139 l 486 139 l 486 278 l 625 278 l 625 139 m 486 139 l 486 0 l 69 0 l 69 139 l 486 139 z "},"t":{"ha":556,"x_min":69,"x_max":486,"o":"m 208 139 l 69 139 l 69 833 l 208 833 l 208 694 l 486 694 l 486 556 l 208 556 l 208 139 m 208 0 l 208 139 l 486 139 l 486 0 l 208 0 z "},"u":{"ha":694,"x_min":69,"x_max":625,"o":"m 208 139 l 69 139 l 69 694 l 208 694 l 208 139 m 486 694 l 625 694 l 625 0 l 208 0 l 208 139 l 486 139 l 486 694 z "},"v":{"ha":833,"x_min":69,"x_max":764,"o":"m 208 694 l 208 417 l 69 417 l 69 694 l 208 694 m 625 694 l 764 694 l 764 417 l 625 417 l 625 694 m 347 417 l 347 139 l 208 139 l 208 417 l 347 417 m 486 417 l 625 417 l 625 139 l 486 139 l 486 417 m 347 0 l 347 139 l 486 139 l 486 0 l 347 0 z "},"w":{"ha":1111,"x_min":69,"x_max":1042,"o":"m 208 694 l 208 417 l 69 417 l 69 694 l 208 694 m 625 139 l 486 139 l 486 694 l 625 694 l 625 139 m 903 694 l 1042 694 l 1042 417 l 903 417 l 903 694 m 347 417 l 347 139 l 208 139 l 208 417 l 347 417 m 764 417 l 903 417 l 903 139 l 764 139 l 764 417 m 347 0 l 347 139 l 486 139 l 486 0 l 347 0 m 625 0 l 625 139 l 764 139 l 764 0 l 625 0 z "},"x":{"ha":694,"x_min":69,"x_max":625,"o":"m 208 694 l 208 417 l 69 417 l 69 694 l 208 694 m 486 694 l 625 694 l 625 417 l 486 417 l 486 694 m 208 417 l 486 417 l 486 278 l 208 278 l 208 417 m 69 278 l 208 278 l 208 0 l 69 0 l 69 278 m 486 0 l 486 278 l 625 278 l 625 0 l 486 0 z "},"y":{"ha":833,"x_min":69,"x_max":764,"o":"m 208 694 l 208 417 l 69 417 l 69 694 l 208 694 m 625 694 l 764 694 l 764 417 l 625 417 l 625 694 m 347 417 l 347 139 l 208 139 l 208 417 l 347 417 m 486 417 l 625 417 l 625 139 l 486 139 l 486 417 m 347 139 l 486 139 l 486 -139 l 347 -139 l 347 139 m 208 -278 l 208 -139 l 347 -139 l 347 -278 l 208 -278 z "},"z":{"ha":694,"x_min":69,"x_max":625,"o":"m 625 694 l 625 417 l 486 417 l 486 556 l 69 556 l 69 694 l 625 694 m 208 417 l 486 417 l 486 278 l 208 278 l 208 417 m 69 278 l 208 278 l 208 139 l 625 139 l 625 0 l 69 0 l 69 278 z "},".":{"ha":278,"x_min":69,"x_max":208,"o":"m 208 139 l 208 0 l 69 0 l 69 139 l 208 139 z "},",":{"ha":278,"x_min":69,"x_max":208,"o":"m 69 139 l 208 139 l 208 -139 l 69 -139 l 69 139 z "},":":{"ha":278,"x_min":69,"x_max":208,"o":"m 208 486 l 208 347 l 69 347 l 69 486 l 208 486 m 208 139 l 208 0 l 69 0 l 69 139 l 208 139 z "},";":{"ha":278,"x_min":69,"x_max":208,"o":"m 69 486 l 208 486 l 208 347 l 69 347 l 69 486 m 69 139 l 208 139 l 208 -139 l 69 -139 l 69 139 z "},"…":{"ha":833,"x_min":69,"x_max":764,"o":"m 208 139 l 208 0 l 69 0 l 69 139 l 208 139 m 764 139 l 764 0 l 625 0 l 625 139 l 764 139 m 486 139 l 486 0 l 347 0 l 347 139 l 486 139 z "},"!":{"ha":278,"x_min":69,"x_max":208,"o":"m 69 972 l 208 972 l 208 278 l 69 278 l 69 972 m 69 0 l 69 139 l 208 139 l 208 0 l 69 0 z "},"¡":{"ha":278,"x_min":69,"x_max":208,"o":"m 69 972 l 208 972 l 208 833 l 69 833 l 69 972 m 69 694 l 208 694 l 208 0 l 69 0 l 69 694 z "},"?":{"ha":556,"x_min":69,"x_max":486,"o":"m 347 972 l 347 833 l 69 833 l 69 972 l 347 972 m 347 833 l 486 833 l 486 556 l 347 556 l 347 833 m 69 556 l 347 556 l 347 417 l 208 417 l 208 278 l 69 278 l 69 556 m 69 0 l 69 139 l 208 139 l 208 0 l 69 0 z "},"¿":{"ha":556,"x_min":69,"x_max":486,"o":"m 347 972 l 486 972 l 486 833 l 347 833 l 347 972 m 347 556 l 347 694 l 486 694 l 486 417 l 208 417 l 208 556 l 347 556 m 69 417 l 208 417 l 208 139 l 69 139 l 69 417 m 208 0 l 208 139 l 486 139 l 486 0 l 208 0 z "},"·":{"ha":278,"x_min":69,"x_max":208,"o":"m 208 486 l 208 347 l 69 347 l 69 486 l 208 486 z "},"•":{"ha":417,"x_min":69,"x_max":347,"o":"m 347 486 l 347 208 l 69 208 l 69 486 l 347 486 z "},"*":{"ha":556,"x_min":69,"x_max":486,"o":"m 69 972 l 208 972 l 208 833 l 69 833 l 69 972 m 347 972 l 486 972 l 486 833 l 347 833 l 347 972 m 347 694 l 208 694 l 208 833 l 347 833 l 347 694 m 208 556 l 69 556 l 69 694 l 208 694 l 208 556 m 347 694 l 486 694 l 486 556 l 347 556 l 347 694 z "},"#":{"ha":833,"x_min":69,"x_max":764,"o":"m 625 556 l 625 278 l 764 278 l 764 139 l 625 139 l 625 0 l 486 0 l 486 139 l 347 139 l 347 0 l 208 0 l 208 139 l 69 139 l 69 278 l 208 278 l 208 556 l 69 556 l 69 694 l 208 694 l 208 833 l 347 833 l 347 694 l 486 694 l 486 833 l 625 833 l 625 694 l 764 694 l 764 556 l 625 556 m 486 278 l 486 556 l 347 556 l 347 278 l 486 278 z "},"/":{"ha":556,"x_min":69,"x_max":486,"o":"m 347 972 l 486 972 l 486 694 l 347 694 l 347 972 m 208 694 l 347 694 l 347 0 l 208 0 l 208 694 m 69 0 l 208 0 l 208 -278 l 69 -278 l 69 0 z "},"\\":{"ha":556,"x_min":69,"x_max":486,"o":"m 208 972 l 208 694 l 69 694 l 69 972 l 208 972 m 347 0 l 208 0 l 208 694 l 347 694 l 347 0 m 347 0 l 486 0 l 486 -278 l 347 -278 l 347 0 z "},"(":{"ha":556,"x_min":69,"x_max":486,"o":"m 486 972 l 486 833 l 347 833 l 347 972 l 486 972 m 347 833 l 347 694 l 208 694 l 208 833 l 347 833 m 208 0 l 69 0 l 69 694 l 208 694 l 208 0 m 347 -139 l 208 -139 l 208 0 l 347 0 l 347 -139 m 486 -278 l 347 -278 l 347 -139 l 486 -139 l 486 -278 z "},")":{"ha":556,"x_min":69,"x_max":486,"o":"m 69 972 l 208 972 l 208 833 l 69 833 l 69 972 m 208 833 l 347 833 l 347 694 l 208 694 l 208 833 m 347 694 l 486 694 l 486 0 l 347 0 l 347 694 m 208 -139 l 208 0 l 347 0 l 347 -139 l 208 -139 m 69 -278 l 69 -139 l 208 -139 l 208 -278 l 69 -278 z "},"{":{"ha":556,"x_min":69,"x_max":486,"o":"m 347 417 l 208 417 l 208 972 l 486 972 l 486 833 l 347 833 l 347 417 m 69 417 l 208 417 l 208 278 l 69 278 l 69 417 m 208 278 l 347 278 l 347 -139 l 486 -139 l 486 -278 l 208 -278 l 208 278 z "},"}":{"ha":556,"x_min":69,"x_max":486,"o":"m 347 417 l 208 417 l 208 833 l 69 833 l 69 972 l 347 972 l 347 417 m 347 417 l 486 417 l 486 278 l 347 278 l 347 417 m 208 278 l 347 278 l 347 -278 l 69 -278 l 69 -139 l 208 -139 l 208 278 z "},"[":{"ha":417,"x_min":69,"x_max":347,"o":"m 208 -139 l 347 -139 l 347 -278 l 69 -278 l 69 972 l 347 972 l 347 833 l 208 833 l 208 -139 z "},"]":{"ha":417,"x_min":69,"x_max":347,"o":"m 347 972 l 347 -278 l 69 -278 l 69 -139 l 208 -139 l 208 833 l 69 833 l 69 972 l 347 972 z "},"-":{"ha":556,"x_min":69,"x_max":486,"o":"m 486 417 l 486 278 l 69 278 l 69 417 l 486 417 z "},"–":{"ha":833,"x_min":69,"x_max":764,"o":"m 764 417 l 764 278 l 69 278 l 69 417 l 764 417 z "},"—":{"ha":1250,"x_min":69,"x_max":1181,"o":"m 1181 417 l 1181 278 l 69 278 l 69 417 l 1181 417 z "},"_":{"ha":833,"x_min":69,"x_max":764,"o":"m 764 -139 l 764 -278 l 69 -278 l 69 -139 l 764 -139 z "},"‚":{"ha":278,"x_min":69,"x_max":208,"o":"m 69 139 l 208 139 l 208 -139 l 69 -139 l 69 139 z "},"„":{"ha":556,"x_min":69,"x_max":486,"o":"m 347 139 l 486 139 l 486 -139 l 347 -139 l 347 139 m 69 139 l 208 139 l 208 -139 l 69 -139 l 69 139 z "},"“":{"ha":556,"x_min":69,"x_max":486,"o":"z "},"”":{"ha":556,"x_min":69,"x_max":486,"o":"z "},"‘":{"ha":278,"x_min":69,"x_max":208,"o":"m 69 833 l 208 833 l 208 556 l 69 556 l 69 833 z "},"’":{"ha":278,"x_min":69,"x_max":208,"o":"m 69 833 l 208 833 l 208 556 l 69 556 l 69 833 z "},"«":{"ha":1111,"x_min":69,"x_max":1042,"o":"m 625 833 l 625 694 l 486 694 l 486 833 l 625 833 m 486 694 l 486 556 l 347 556 l 347 694 l 486 694 m 347 556 l 347 417 l 208 417 l 208 556 l 347 556 m 208 417 l 208 278 l 69 278 l 69 417 l 208 417 m 347 278 l 347 139 l 208 139 l 208 278 l 347 278 m 486 139 l 486 0 l 347 0 l 347 139 l 486 139 m 625 0 l 625 -139 l 486 -139 l 486 0 l 625 0 m 1042 833 l 1042 694 l 903 694 l 903 833 l 1042 833 m 903 694 l 903 556 l 764 556 l 764 694 l 903 694 m 764 556 l 764 417 l 625 417 l 625 556 l 764 556 m 625 417 l 625 278 l 486 278 l 486 417 l 625 417 m 764 278 l 764 139 l 625 139 l 625 278 l 764 278 m 903 139 l 903 0 l 764 0 l 764 139 l 903 139 m 1042 0 l 1042 -139 l 903 -139 l 903 0 l 1042 0 z "},"»":{"ha":1111,"x_min":69,"x_max":1042,"o":"m 625 833 l 625 694 l 486 694 l 486 833 l 625 833 m 764 694 l 764 556 l 625 556 l 625 694 l 764 694 m 903 556 l 903 417 l 764 417 l 764 556 l 903 556 m 1042 417 l 1042 278 l 903 278 l 903 417 l 1042 417 m 903 278 l 903 139 l 764 139 l 764 278 l 903 278 m 764 139 l 764 0 l 625 0 l 625 139 l 764 139 m 625 0 l 625 -139 l 486 -139 l 486 0 l 625 0 m 208 833 l 208 694 l 69 694 l 69 833 l 208 833 m 347 694 l 347 556 l 208 556 l 208 694 l 347 694 m 486 556 l 486 417 l 347 417 l 347 556 l 486 556 m 625 417 l 625 278 l 486 278 l 486 417 l 625 417 m 486 278 l 486 139 l 347 139 l 347 278 l 486 278 m 347 139 l 347 0 l 208 0 l 208 139 l 347 139 m 208 0 l 208 -139 l 69 -139 l 69 0 l 208 0 z "},"‹":{"ha":694,"x_min":69,"x_max":625,"o":"m 625 833 l 625 694 l 486 694 l 486 833 l 625 833 m 486 694 l 486 556 l 347 556 l 347 694 l 486 694 m 347 556 l 347 417 l 208 417 l 208 556 l 347 556 m 208 417 l 208 278 l 69 278 l 69 417 l 208 417 m 347 278 l 347 139 l 208 139 l 208 278 l 347 278 m 486 139 l 486 0 l 347 0 l 347 139 l 486 139 m 625 0 l 625 -139 l 486 -139 l 486 0 l 625 0 z "},"›":{"ha":694,"x_min":69,"x_max":625,"o":"m 208 833 l 208 694 l 69 694 l 69 833 l 208 833 m 347 694 l 347 556 l 208 556 l 208 694 l 347 694 m 486 556 l 486 417 l 347 417 l 347 556 l 486 556 m 625 417 l 625 278 l 486 278 l 486 417 l 625 417 m 486 278 l 486 139 l 347 139 l 347 278 l 486 278 m 347 139 l 347 0 l 208 0 l 208 139 l 347 139 m 208 0 l 208 -139 l 69 -139 l 69 0 l 208 0 z "},"\"":{"ha":556,"x_min":69,"x_max":486,"o":"m 69 833 l 208 833 l 208 556 l 69 556 l 69 833 m 347 833 l 486 833 l 486 556 l 347 556 l 347 833 z "},"'":{"ha":278,"x_min":69,"x_max":208,"o":"m 69 833 l 208 833 l 208 556 l 69 556 l 69 833 z "}," ":{"ha":417,"x_min":0,"x_max":0,"o":""}," ":{"ha":417,"x_min":0,"x_max":0,"o":""},"​":{"ha":139,"x_min":0,"x_max":0,"o":""},"^":{"ha":833,"x_min":69,"x_max":764,"o":"m 486 764 l 347 764 l 347 903 l 486 903 l 486 764 m 347 625 l 208 625 l 208 764 l 347 764 l 347 625 m 625 625 l 486 625 l 486 764 l 625 764 l 625 625 m 208 486 l 69 486 l 69 625 l 208 625 l 208 486 m 764 486 l 625 486 l 625 625 l 764 625 l 764 486 z "},"%":{"ha":1111,"x_min":69,"x_max":1042,"o":"m 347 972 l 347 833 l 208 833 l 208 972 l 347 972 m 903 972 l 903 833 l 764 833 l 764 972 l 903 972 m 208 833 l 208 694 l 69 694 l 69 833 l 208 833 m 486 694 l 347 694 l 347 833 l 486 833 l 486 694 m 764 556 l 625 556 l 625 833 l 764 833 l 764 556 m 208 556 l 208 694 l 347 694 l 347 556 l 208 556 m 625 556 l 625 417 l 486 417 l 486 556 l 625 556 m 347 417 l 486 417 l 486 139 l 347 139 l 347 417 m 903 417 l 903 278 l 764 278 l 764 417 l 903 417 m 625 278 l 764 278 l 764 139 l 625 139 l 625 278 m 903 278 l 1042 278 l 1042 139 l 903 139 l 903 278 m 208 0 l 208 139 l 347 139 l 347 0 l 208 0 m 764 0 l 764 139 l 903 139 l 903 0 l 764 0 z "},"":{"ha":1597,"x_min":69,"x_max":1528,"o":"m 278 903 l 278 833 l 208 833 l 208 903 l 278 903 m 208 764 l 278 764 l 278 694 l 208 694 l 208 486 l 139 486 l 139 694 l 69 694 l 69 764 l 139 764 l 139 833 l 208 833 l 208 764 m 1042 833 l 1042 764 l 1111 764 l 1111 694 l 1042 694 l 1042 556 l 1111 556 l 1111 486 l 972 486 l 972 833 l 1042 833 m 1319 833 l 1319 764 l 1250 764 l 1250 833 l 1319 833 m 486 694 l 347 694 l 347 764 l 486 764 l 486 694 m 833 764 l 833 694 l 694 694 l 694 486 l 625 486 l 625 764 l 833 764 m 1181 764 l 1250 764 l 1250 694 l 1181 694 l 1181 764 m 347 694 l 347 556 l 278 556 l 278 694 l 347 694 m 486 694 l 556 694 l 556 556 l 486 556 l 486 694 m 833 694 l 903 694 l 903 486 l 833 486 l 833 694 m 1319 625 l 1250 625 l 1250 694 l 1319 694 l 1319 625 m 347 556 l 486 556 l 486 486 l 347 486 l 347 556 m 278 417 l 278 347 l 208 347 l 208 417 l 278 417 m 694 69 l 833 69 l 833 0 l 625 0 l 625 417 l 694 417 l 694 278 l 833 278 l 833 208 l 694 208 l 694 69 m 1181 347 l 1181 417 l 1250 417 l 1250 347 l 1181 347 m 208 278 l 278 278 l 278 208 l 208 208 l 208 0 l 139 0 l 139 208 l 69 208 l 69 278 l 139 278 l 139 347 l 208 347 l 208 278 m 556 278 l 556 0 l 347 0 l 347 69 l 486 69 l 486 208 l 347 208 l 347 278 l 556 278 m 972 278 l 1111 278 l 1111 208 l 1042 208 l 1042 0 l 972 0 l 972 278 m 1181 278 l 1250 278 l 1250 0 l 1181 0 l 1181 278 m 1528 208 l 1389 208 l 1389 278 l 1528 278 l 1528 208 m 347 208 l 347 69 l 278 69 l 278 208 l 347 208 m 833 208 l 903 208 l 903 69 l 833 69 l 833 208 m 1389 208 l 1389 69 l 1319 69 l 1319 208 l 1389 208 m 1389 0 l 1389 69 l 1528 69 l 1528 0 l 1389 0 z "}}}
